<svg width="175" height="20" viewBox="0 0 175 20" fill="none" xmlns="http://www.w3.org/2000/svg">
<path d="M2.95818 19.5451H0V0.660307H3.2223L13.9457 16.5605H12.9156V0.660307H15.8738V19.5451H12.6515L1.90169 3.6449H2.95818V19.5451Z" fill="white"/>
<path d="M24.959 19.9677C23.568 19.9677 22.3266 19.6684 21.2349 19.0697C20.1608 18.471 19.3156 17.6434 18.6993 16.5869C18.083 15.5304 17.7749 14.3155 17.7749 12.942C17.7749 11.5862 18.083 10.38 18.6993 9.32354C19.3156 8.26705 20.1608 7.43946 21.2349 6.84078C22.3266 6.2421 23.568 5.94277 24.959 5.94277C26.3677 5.94277 27.609 6.2421 28.6831 6.84078C29.7748 7.43946 30.62 8.26705 31.2187 9.32354C31.835 10.38 32.1431 11.5862 32.1431 12.942C32.1431 14.3155 31.835 15.5304 31.2187 16.5869C30.62 17.6434 29.7748 18.471 28.6831 19.0697C27.609 19.6684 26.3677 19.9677 24.959 19.9677ZM24.959 17.4849C25.7866 17.4849 26.5085 17.2912 27.1248 16.9039C27.7411 16.5165 28.2165 15.9882 28.5511 15.3191C28.9032 14.6324 29.0793 13.84 29.0793 12.942C29.0793 12.0616 28.9032 11.2869 28.5511 10.6177C28.2165 9.93102 27.7411 9.39397 27.1248 9.00659C26.5085 8.61921 25.7866 8.42552 24.959 8.42552C24.149 8.42552 23.4359 8.61921 22.8196 9.00659C22.2033 9.39397 21.7191 9.93102 21.3669 10.6177C21.0324 11.2869 20.8651 12.0616 20.8651 12.942C20.8651 13.84 21.0324 14.6324 21.3669 15.3191C21.7191 15.9882 22.2033 16.5165 22.8196 16.9039C23.4359 17.2912 24.149 17.4849 24.959 17.4849Z" fill="white"/>
<path d="M36.6314 19.5451H33.6996V0.528245H36.6578V10.4329H35.9447C36.0855 9.55245 36.4025 8.77769 36.8955 8.10857C37.3885 7.43946 38.0224 6.91122 38.7972 6.52384C39.5719 6.13646 40.4436 5.94277 41.412 5.94277C42.6446 5.94277 43.7539 6.2421 44.74 6.84078C45.7436 7.43946 46.536 8.26705 47.1171 9.32354C47.6981 10.38 47.9887 11.5862 47.9887 12.942C47.9887 14.3155 47.6893 15.5304 47.0906 16.5869C46.5096 17.6434 45.7172 18.471 44.7135 19.0697C43.7099 19.6684 42.5741 19.9677 41.3064 19.9677C40.1442 19.9677 39.1405 19.73 38.2954 19.2546C37.4502 18.7615 36.8075 18.1012 36.3673 17.2736C35.9447 16.4284 35.7686 15.4864 35.839 14.4475L36.4465 13.9721C36.5345 14.6588 36.7722 15.2663 37.1596 15.7946C37.547 16.3228 38.0488 16.7366 38.6651 17.0359C39.2814 17.3353 39.9505 17.4849 40.6725 17.4849C41.5353 17.4849 42.2748 17.2912 42.8911 16.9039C43.525 16.5165 44.018 15.9794 44.3702 15.2927C44.7223 14.606 44.8984 13.8224 44.8984 12.942C44.8984 12.0792 44.7311 11.3045 44.3966 10.6177C44.062 9.93102 43.5866 9.39397 42.9703 9.00659C42.3717 8.61921 41.6673 8.42552 40.8573 8.42552C40.0474 8.42552 39.3254 8.62802 38.6915 9.033C38.0576 9.42038 37.5558 9.96624 37.186 10.6706C36.8339 11.3749 36.6578 12.2025 36.6578 13.1533V16.1379L36.6314 16.27V19.5451Z" fill="white"/>
<path d="M52.4928 19.5451H49.5346V0.528245H52.4928V19.5451Z" fill="white"/>
<path d="M65.9183 15.5568L67.6087 17.4057C66.9219 18.1981 66.068 18.8232 65.0467 19.281C64.0254 19.7388 62.8897 19.9677 61.6395 19.9677C60.1604 19.9677 58.8486 19.6684 57.7041 19.0697C56.5771 18.471 55.6879 17.6434 55.0364 16.5869C54.4025 15.5304 54.0856 14.3243 54.0856 12.9684C54.0856 11.595 54.3937 10.38 55.01 9.32354C55.6263 8.26705 56.4715 7.43946 57.5456 6.84078C58.6197 6.2421 59.8258 5.94277 61.1641 5.94277C62.4671 5.94277 63.6204 6.2421 64.6241 6.84078C65.6277 7.42185 66.4201 8.23183 67.0012 9.27071C67.5823 10.292 67.8728 11.4805 67.8728 12.8364V12.9948H64.941V12.7043C64.941 11.8239 64.7738 11.0579 64.4392 10.4064C64.1222 9.73733 63.682 9.2267 63.1186 8.87453C62.5551 8.50476 61.8948 8.31987 61.1377 8.31987C60.3453 8.31987 59.641 8.51356 59.0247 8.90094C58.426 9.27071 57.9594 9.79896 57.6248 10.4857C57.2903 11.1548 57.123 11.9648 57.123 12.9156C57.123 13.8665 57.3167 14.694 57.7041 15.3984C58.109 16.1027 58.6549 16.6486 59.3416 17.0359C60.0459 17.4057 60.8559 17.5906 61.7715 17.5906C63.4443 17.5906 64.8266 16.9127 65.9183 15.5568ZM67.8728 13.8929H56.1457V11.8855H67.4502L67.8728 12.8628V13.8929Z" fill="white"/>
<path d="M76.846 19.5451H73.8085V0.660307H86.2751V3.24871H76.846V19.5451ZM85.7733 11.2516H76.5818V8.66323H85.7733V11.2516Z" fill="white"/>
<path d="M90.7101 19.5451H87.752V6.36536H90.7101V19.5451ZM89.231 3.6449C88.7204 3.6449 88.2802 3.46881 87.9104 3.11665C87.5407 2.76449 87.3558 2.34189 87.3558 1.84886C87.3558 1.32061 87.5407 0.880409 87.9104 0.528245C88.2802 0.176082 88.7204 0 89.231 0C89.7593 0 90.1995 0.176082 90.5517 0.528245C90.9214 0.880409 91.1063 1.31181 91.1063 1.82245C91.1063 2.33309 90.9214 2.76449 90.5517 3.11665C90.1995 3.46881 89.7593 3.6449 89.231 3.6449Z" fill="white"/>
<path d="M105.43 19.5451H102.472V11.9384C102.472 10.7586 102.208 9.8782 101.679 9.29713C101.151 8.71606 100.438 8.42552 99.5399 8.42552C98.8884 8.42552 98.2721 8.5928 97.691 8.92736C97.1276 9.26191 96.6698 9.79016 96.3176 10.5121C95.9654 11.234 95.7893 12.1673 95.7893 13.3118V19.5451H92.8312V6.36536H95.7629V10.4329H95.3668C95.5428 9.27071 95.8862 8.3727 96.3968 7.7388C96.9075 7.0873 97.5061 6.62949 98.1929 6.36536C98.8796 6.08363 99.5839 5.94277 100.306 5.94277C101.891 5.94277 103.141 6.42699 104.056 7.39544C104.972 8.36389 105.43 9.77255 105.43 11.6214V19.5451Z" fill="white"/>
<path d="M119.21 19.5451H116.489V16.9303L116.357 16.3756V11.4365C116.357 10.4505 116.04 9.68451 115.406 9.13865C114.773 8.57519 113.91 8.29346 112.818 8.29346C112.026 8.29346 111.286 8.45193 110.599 8.76888C109.93 9.08583 109.349 9.52603 108.856 10.0895L107.166 8.24063C107.888 7.5187 108.733 6.95524 109.701 6.55025C110.67 6.14526 111.744 5.94277 112.924 5.94277C114.174 5.94277 115.266 6.16287 116.199 6.60307C117.15 7.02567 117.889 7.64196 118.417 8.45193C118.946 9.26191 119.21 10.2304 119.21 11.3573V19.5451ZM111.814 19.9677C110.811 19.9677 109.922 19.7828 109.147 19.413C108.372 19.0433 107.773 18.5414 107.351 17.9075C106.928 17.2736 106.717 16.5341 106.717 15.6889C106.717 14.7733 106.981 13.9985 107.509 13.3646C108.037 12.7131 108.768 12.2201 109.701 11.8855C110.652 11.5334 111.744 11.3573 112.977 11.3573H116.674V13.391H113.241C112.202 13.391 111.357 13.5759 110.705 13.9457C110.071 14.3155 109.754 14.8613 109.754 15.5833C109.754 16.2348 110.001 16.7542 110.494 17.1416C110.987 17.5114 111.63 17.6962 112.422 17.6962C113.179 17.6962 113.875 17.5378 114.508 17.2208C115.142 16.9039 115.644 16.4725 116.014 15.9266C116.401 15.3632 116.621 14.7205 116.674 13.9985L117.625 14.4475C117.625 15.5216 117.379 16.4813 116.886 17.3265C116.393 18.1541 115.706 18.8056 114.825 19.281C113.945 19.7388 112.941 19.9677 111.814 19.9677Z" fill="white"/>
<path d="M133.721 19.5451H130.763V11.9384C130.763 10.7586 130.499 9.8782 129.97 9.29713C129.442 8.71606 128.729 8.42552 127.831 8.42552C127.179 8.42552 126.563 8.5928 125.982 8.92736C125.419 9.26191 124.961 9.79016 124.609 10.5121C124.257 11.234 124.08 12.1673 124.08 13.3118V19.5451H121.122V6.36536H124.054V10.4329H123.658C123.834 9.27071 124.177 8.3727 124.688 7.7388C125.199 7.0873 125.797 6.62949 126.484 6.36536C127.171 6.08363 127.875 5.94277 128.597 5.94277C130.182 5.94277 131.432 6.42699 132.347 7.39544C133.263 8.36389 133.721 9.77255 133.721 11.6214V19.5451Z" fill="white"/>
<path d="M145.969 15.504L147.871 17.3529C147.219 18.1629 146.418 18.8056 145.467 19.281C144.516 19.7388 143.425 19.9677 142.192 19.9677C140.836 19.9677 139.621 19.6684 138.547 19.0697C137.491 18.4534 136.654 17.6258 136.038 16.5869C135.422 15.5304 135.114 14.3155 135.114 12.942C135.114 11.5862 135.422 10.3888 136.038 9.34995C136.654 8.29346 137.499 7.46587 138.574 6.8672C139.665 6.25091 140.898 5.94277 142.271 5.94277C143.469 5.94277 144.534 6.17167 145.467 6.62949C146.418 7.0873 147.219 7.73 147.871 8.55758L145.969 10.4064C145.582 9.80777 145.089 9.33234 144.49 8.98018C143.909 8.61041 143.204 8.42552 142.377 8.42552C141.567 8.42552 140.845 8.61921 140.211 9.00659C139.577 9.39397 139.084 9.93102 138.732 10.6177C138.38 11.2869 138.204 12.0616 138.204 12.942C138.204 13.8224 138.38 14.606 138.732 15.2927C139.084 15.9794 139.577 16.5165 140.211 16.9039C140.845 17.2912 141.567 17.4849 142.377 17.4849C143.204 17.4849 143.909 17.3001 144.49 16.9303C145.089 16.5605 145.582 16.0851 145.969 15.504Z" fill="white"/>
<path d="M159.996 15.5568L161.686 17.4057C160.999 18.1981 160.145 18.8232 159.124 19.281C158.103 19.7388 156.967 19.9677 155.717 19.9677C154.238 19.9677 152.926 19.6684 151.781 19.0697C150.654 18.471 149.765 17.6434 149.114 16.5869C148.48 15.5304 148.163 14.3243 148.163 12.9684C148.163 11.595 148.471 10.38 149.087 9.32354C149.704 8.26705 150.549 7.43946 151.623 6.84078C152.697 6.2421 153.903 5.94277 155.241 5.94277C156.544 5.94277 157.698 6.2421 158.701 6.84078C159.705 7.42185 160.497 8.23183 161.078 9.27071C161.66 10.292 161.95 11.4805 161.95 12.8364V12.9948H159.018V12.7043C159.018 11.8239 158.851 11.0579 158.516 10.4064C158.2 9.73733 157.759 9.2267 157.196 8.87453C156.632 8.50476 155.972 8.31987 155.215 8.31987C154.423 8.31987 153.718 8.51356 153.102 8.90094C152.503 9.27071 152.037 9.79896 151.702 10.4857C151.368 11.1548 151.2 11.9648 151.2 12.9156C151.2 13.8665 151.394 14.694 151.781 15.3984C152.186 16.1027 152.732 16.6486 153.419 17.0359C154.123 17.4057 154.933 17.5906 155.849 17.5906C157.522 17.5906 158.904 16.9127 159.996 15.5568ZM161.95 13.8929H150.223V11.8855H161.527L161.95 12.8628V13.8929Z" fill="white"/>
<path d="M162.362 17.5378L164.079 15.6889C164.678 16.3052 165.382 16.7894 166.192 17.1416C167.02 17.4937 167.883 17.6698 168.781 17.6698C169.696 17.6698 170.427 17.5025 170.973 17.168C171.519 16.8158 171.792 16.3668 171.792 15.821C171.792 15.3279 171.545 14.9494 171.052 14.6852C170.577 14.4035 169.723 14.1834 168.49 14.0249C166.553 13.7432 165.144 13.303 164.264 12.7043C163.401 12.088 162.97 11.2428 162.97 10.1687C162.97 9.32354 163.216 8.58399 163.709 7.9501C164.202 7.31621 164.872 6.82318 165.717 6.47101C166.562 6.11885 167.53 5.94277 168.622 5.94277C169.89 5.94277 171.008 6.15406 171.976 6.57666C172.962 6.99926 173.816 7.57152 174.538 8.29346L172.822 10.1687C172.276 9.57005 171.651 9.09463 170.946 8.74247C170.242 8.39031 169.476 8.21422 168.648 8.21422C167.821 8.21422 167.152 8.3815 166.641 8.71606C166.131 9.033 165.875 9.4468 165.875 9.95743C165.875 10.38 166.104 10.7058 166.562 10.9347C167.037 11.146 167.865 11.3309 169.045 11.4893C170.982 11.7711 172.408 12.2377 173.323 12.8892C174.239 13.5231 174.697 14.4387 174.697 15.6361C174.697 16.4989 174.442 17.256 173.931 17.9075C173.42 18.559 172.716 19.0697 171.818 19.4394C170.92 19.7916 169.872 19.9677 168.675 19.9677C167.389 19.9677 166.21 19.7564 165.136 19.3338C164.062 18.8936 163.137 18.2949 162.362 17.5378Z" fill="white"/>
</svg>
